<svg width="75" height="75" viewBox="0 0 75 75" fill="none" xmlns="http://www.w3.org/2000/svg">
<path fill-rule="evenodd" clip-rule="evenodd" d="M21.8872 23.4192C21.8872 22.5562 22.5868 21.8567 23.4497 21.8567H36.6807C37.5438 21.8567 38.2432 22.5562 38.2432 23.4192C38.2432 24.2821 37.5438 24.9817 36.6807 24.9817H23.4497C22.5868 24.9817 21.8872 24.2821 21.8872 23.4192ZM23.4497 31.2202C22.5868 31.2202 21.8872 31.9197 21.8872 32.7828C21.8872 33.6456 22.5868 34.3453 23.4497 34.3453H51.5891C52.4522 34.3453 53.1516 33.6456 53.1516 32.7828C53.1516 31.9197 52.4522 31.2202 51.5891 31.2202H23.4497ZM23.4497 40.5953C22.5868 40.5953 21.8872 41.2947 21.8872 42.1578C21.8872 43.0206 22.5868 43.7203 23.4497 43.7203H51.6182C52.481 43.7203 53.1807 43.0206 53.1807 42.1578C53.1807 41.2947 52.481 40.5953 51.6182 40.5953H23.4497Z" fill="black"/>
<path fill-rule="evenodd" clip-rule="evenodd" d="M20.3003 9.34369C14.2597 9.34369 9.36279 14.2406 9.36279 20.2812V45.4878C9.36279 45.5109 9.36332 45.5343 9.36432 45.5575C9.36571 46.8914 9.74037 49.365 10.2535 50.5961C10.7666 51.8272 11.5179 52.9446 12.464 53.884C13.4102 54.8234 14.5326 55.5663 15.7666 56.0699C17.0006 56.5735 18.322 56.8278 19.6546 56.8183H27.043L35.9968 66.3517C36.4686 66.7114 37.0453 66.9062 37.6384 66.9062C38.2315 66.9062 38.8082 66.7114 39.28 66.3517L47.9781 56.8183H55.2747C56.6116 56.8186 57.9356 56.5551 59.1708 56.0431C60.4061 55.531 61.5285 54.7804 62.4739 53.8341C63.4193 52.8877 64.1691 51.7642 64.6807 50.5277C65.1922 49.2912 65.6359 47.2446 65.6356 45.9062V20.2812C65.6356 14.2406 60.7388 9.34369 54.6981 9.34369H20.3003ZM12.4878 20.2812L12.4893 45.5575C12.4874 46.2376 12.6392 48.3092 12.8985 48.9378C13.1579 49.5664 13.5389 50.1374 14.0196 50.618C14.5004 51.0985 15.0714 51.4791 15.6997 51.7379C16.328 51.9966 17.0013 52.1283 17.6807 52.1255H26.6328C27.8671 52.108 29.0644 52.5472 29.9951 53.359L37.7994 61.7417L45.1807 53.359C46.1196 52.5588 47.3135 52.1213 48.5466 52.1255H57.3985C58.0779 52.1283 58.7512 51.9966 59.3795 51.7379C60.0078 51.4791 60.5788 51.0985 61.0596 50.618C61.5403 50.1374 61.9213 49.5664 62.1807 48.9378C62.44 48.3092 62.5125 45.365 62.5106 44.6849V20.2812C62.5106 15.9665 59.0128 12.4687 54.6981 12.4687H20.3003C15.9856 12.4687 12.4878 15.9665 12.4878 20.2812Z" fill="black"/>
</svg>
